<?xml version="1.0" encoding="UTF-8" standalone="no"?>
<svg
   xmlns:dc="http://purl.org/dc/elements/1.1/"
   xmlns:cc="http://creativecommons.org/ns#"
   xmlns:rdf="http://www.w3.org/1999/02/22-rdf-syntax-ns#"
   xmlns:svg="http://www.w3.org/2000/svg"
   xmlns="http://www.w3.org/2000/svg"
   xmlns:sodipodi="http://sodipodi.sourceforge.net/DTD/sodipodi-0.dtd"
   xmlns:inkscape="http://www.inkscape.org/namespaces/inkscape"
   viewBox="0 0 371.09375 376.06976"
   height="376.06976"
   width="371.09375"
   xml:space="preserve"
   id="svg2"
   version="1.1"
   sodipodi:docname="Diagramme.svg"
   inkscape:version="0.92.3 (2405546, 2018-03-11)"><sodipodi:namedview
     pagecolor="#ffffff"
     bordercolor="#666666"
     borderopacity="1"
     objecttolerance="10"
     gridtolerance="10"
     guidetolerance="10"
     inkscape:pageopacity="0"
     inkscape:pageshadow="2"
     inkscape:window-width="1920"
     inkscape:window-height="1017"
     id="namedview91"
     showgrid="false"
     fit-margin-top="0"
     fit-margin-left="0"
     fit-margin-right="0"
     fit-margin-bottom="0"
     inkscape:zoom="0.22348485"
     inkscape:cx="186.04883"
     inkscape:cy="14.47032"
     inkscape:window-x="1592"
     inkscape:window-y="-8"
     inkscape:window-maximized="1"
     inkscape:current-layer="svg2" /><metadata
     id="metadata8"><rdf:RDF><cc:Work
         rdf:about=""><dc:format>image/svg+xml</dc:format><dc:type
           rdf:resource="http://purl.org/dc/dcmitype/StillImage" /><dc:title></dc:title></cc:Work></rdf:RDF></metadata><defs
     id="defs6" /><g
     transform="matrix(1.3333333,0,0,-1.3333333,-221.95117,889.59944)"
     id="g10"><g
       transform="translate(302.091,529.755)"
       id="g12"><g
         id="g14"><g
           id="g16" /><g
           id="g18" /><g
           id="g20"><g
             id="g22"><g
               id="g24"><path
                 id="path26"
                 style="fill:#d9d9d9;fill-opacity:1;fill-rule:nonzero;stroke:none"
                 d="M 75.88268,0 C 75.88268,41.90936 41.90936,75.88268 0,75.88268 -41.90936,75.88268 -75.88268,41.90936 -75.88268,0 c 0,-41.90936 33.97332,-75.88268 75.88268,-75.88268 41.90936,0 75.88268,33.97332 75.88268,75.88268 z"
                 inkscape:connector-curvature="0" /></g><g
               transform="translate(-60.523)"
               id="g28"><g
                 id="g30" /><g
                 transform="translate(60.523)"
                 id="g32" /></g></g><g
             id="g34"><g
               id="g36"><path
                 id="path38"
                 style="fill:#ff9999;fill-opacity:0.5;fill-rule:nonzero;stroke:#ffffff;stroke-width:1.59404004;stroke-linecap:butt;stroke-linejoin:miter;stroke-miterlimit:10;stroke-dasharray:none;stroke-opacity:1"
                 d="m 105.7547,76.96106 c 0,23.98668 -19.44452,43.4312 -43.4312,43.4312 -23.9867,0 -43.4312,-19.44452 -43.4312,-43.4312 0,-23.98669 19.4445,-43.4312 43.4312,-43.4312 23.98668,0 43.4312,19.44451 43.4312,43.4312 z"
                 inkscape:connector-curvature="0" /></g><g
               transform="translate(22.552,73.513)"
               id="g40"><g
                 id="g42"><g
                   transform="translate(-324.643,-603.268)"
                   id="g44"><text
   id="text48"
   style="font-variant:normal;font-weight:bold;font-size:9.96263981px;font-family:LMRoman10;-inkscape-font-specification:LMRoman10-Bold;writing-mode:lr-tb;fill:#000000;fill-opacity:0.8;fill-rule:nonzero;stroke:none"
   transform="matrix(1,0,0,-1,343.722,603.268)"><tspan
     id="tspan46"
     y="0"
     x="0 8.6575346 15.023661 21.389788 26.11208 31.840597 35.018681">Android</tspan></text>

<g
   transform="translate(324.643,603.268)"
   id="g50" /></g></g><g
                 transform="translate(-22.552,-73.513)"
                 id="g52" /></g></g><g
             id="g54"><g
               id="g56"><path
                 id="path58"
                 style="fill:#99def9;fill-opacity:0.5;fill-rule:nonzero;stroke:#ffffff;stroke-width:1.59404004;stroke-linecap:butt;stroke-linejoin:miter;stroke-miterlimit:10;stroke-dasharray:none;stroke-opacity:1"
                 d="m 19.69006,96.45622 c 0,22.19736 -17.994,40.19136 -40.19133,40.19136 -22.19735,0 -40.19136,-17.994 -40.19136,-40.19136 0,-22.19734 17.99401,-40.19134 40.19136,-40.19134 22.19733,0 40.19133,17.994 40.19133,40.19134 z"
                 inkscape:connector-curvature="0" /></g><g
               transform="translate(-55.016,88.306)"
               id="g60"><g
                 id="g62"><g
                   transform="translate(-247.075,-618.061)"
                   id="g64"><text
   id="text68"
   style="font-variant:normal;font-weight:bold;font-size:9.96263981px;font-family:LMRoman10;-inkscape-font-specification:LMRoman10-Bold;writing-mode:lr-tb;fill:#000000;fill-opacity:0.8;fill-rule:nonzero;stroke:none"
   transform="matrix(1,0,0,-1,270.517,630.016)"><tspan
     id="tspan66"
     y="0"
     x="0 5.9178081 11.168119 16.577833">Java</tspan></text>

<text
   id="text72"
   style="font-variant:normal;font-weight:bold;font-size:9.96263981px;font-family:LMRoman10;-inkscape-font-specification:LMRoman10-Bold;writing-mode:lr-tb;fill:#000000;fill-opacity:0.8;fill-rule:nonzero;stroke:none"
   transform="matrix(1,0,0,-1,266.153,618.061)"><tspan
     id="tspan70"
     y="0"
     x="0 6.366127 13.897882 19.6264 27.158157">SE/EE</tspan></text>

<g
   transform="translate(247.075,618.061)"
   id="g74" /></g></g><g
                 transform="translate(55.016,-88.306)"
                 id="g76" /></g></g><g
             id="g78"><g
               id="g80"><path
                 id="path82"
                 style="fill:#9999ff;fill-opacity:0.5;fill-rule:nonzero;stroke:#ffffff;stroke-width:1.59404004;stroke-linecap:butt;stroke-linejoin:miter;stroke-miterlimit:10;stroke-dasharray:none;stroke-opacity:1"
                 d="m -42.87735,43.33965 c 0,25.3925 -20.58412,45.97662 -45.97662,45.97662 -25.39251,0 -45.97663,-20.58412 -45.97663,-45.97662 0,-25.39251 20.58412,-45.97661 45.97663,-45.97661 25.3925,0 45.97662,20.5841 45.97662,45.97661 z"
                 inkscape:connector-curvature="0" /></g><g
               transform="translate(-131.149,39.922)"
               id="g84"><g
                 id="g86"><g
                   transform="translate(-170.942,-569.677)"
                   id="g88"><text
   id="text92"
   style="font-variant:normal;font-weight:bold;font-size:9.96263981px;font-family:LMRoman10;-inkscape-font-specification:LMRoman10-Bold;writing-mode:lr-tb;fill:#000000;fill-opacity:0.8;fill-rule:nonzero;stroke:none"
   transform="matrix(1,0,0,-1,209.099,569.677)"><tspan
     id="tspan90"
     y="0"
     x="0">C</tspan></text>

<g
   transform="translate(170.942,569.677)"
   id="g94" /></g></g><g
                 transform="translate(131.149,-39.922)"
                 id="g96" /></g></g><g
             id="g98"><g
               id="g100"><path
                 id="path102"
                 style="fill:#99ff99;fill-opacity:0.5;fill-rule:nonzero;stroke:#ffffff;stroke-width:1.59404004;stroke-linecap:butt;stroke-linejoin:miter;stroke-miterlimit:10;stroke-dasharray:none;stroke-opacity:1"
                 d="m -47.96178,-41.75453 c 0,22.964 -18.61548,41.57947 -41.57948,41.57947 -22.964,0 -41.57947,-18.61547 -41.57947,-41.57947 0,-22.96401 18.61547,-41.57948 41.57947,-41.57948 22.964,0 41.57948,18.61547 41.57948,41.57948 z"
                 inkscape:connector-curvature="0" /></g><g
               transform="translate(-127.149,-44.259)"
               id="g104"><g
                 id="g106"><g
                   transform="translate(-174.942,-485.496)"
                   id="g108"><text
   id="text112"
   style="font-variant:normal;font-weight:bold;font-size:9.96263981px;font-family:LMRoman10;-inkscape-font-specification:LMRoman10-Bold;writing-mode:lr-tb;fill:#000000;fill-opacity:0.8;fill-rule:nonzero;stroke:none"
   transform="matrix(1,0,0,-1,186.389,485.496)"><tspan
     id="tspan110"
     y="0"
     x="0 5.9178081 11.168119 16.577833 22.146948 28.513075 33.603985 38.326275 41.504356 47.870483">JavaScript</tspan></text>

<g
   transform="translate(174.942,485.496)"
   id="g114" /></g></g><g
                 transform="translate(127.149,44.259)"
                 id="g116" /></g></g><g
             id="g118"><g
               id="g120"><path
                 id="path122"
                 style="fill:#ffcc99;fill-opacity:0.5;fill-rule:nonzero;stroke:#ffffff;stroke-width:1.59404004;stroke-linecap:butt;stroke-linejoin:miter;stroke-miterlimit:10;stroke-dasharray:none;stroke-opacity:1"
                 d="m 25.58688,-96.05168 c 0,26.37691 -21.38211,47.75902 -47.759,47.75902 -26.37691,0 -47.75903,-21.38211 -47.75903,-47.75902 0,-26.37691 21.38212,-47.75903 47.75903,-47.75903 26.37689,0 47.759,21.38212 47.759,47.75903 z"
                 inkscape:connector-curvature="0" /></g><g
               transform="translate(-66.236,-99.467)"
               id="g124"><g
                 id="g126"><g
                   transform="translate(-235.855,-430.288)"
                   id="g128"><text
   id="text132"
   style="font-variant:normal;font-weight:bold;font-size:9.96263981px;font-family:LMRoman10;-inkscape-font-specification:LMRoman10-Bold;writing-mode:lr-tb;fill:#000000;fill-opacity:0.8;fill-rule:nonzero;stroke:none"
   transform="matrix(1,0,0,-1,262.565,430.288)"><tspan
     id="tspan130"
     y="0"
     x="0 8.9663763 16.936487 27.815691">HTML</tspan></text>

<g
   transform="translate(235.855,430.288)"
   id="g134" /></g></g><g
                 transform="translate(66.236,99.467)"
                 id="g136" /></g></g><g
             id="g138"><g
               id="g140"><path
                 id="path142"
                 style="fill:#fffa99;fill-opacity:0.5;fill-rule:nonzero;stroke:#ffffff;stroke-width:1.59404004;stroke-linecap:butt;stroke-linejoin:miter;stroke-miterlimit:10;stroke-dasharray:none;stroke-opacity:1"
                 d="m 101.73746,-77.71451 c 0,22.65341 -18.36373,41.01712 -41.01714,41.01712 -22.65341,0 -41.01712,-18.36371 -41.01712,-41.01712 0,-22.65341 18.36371,-41.01713 41.01712,-41.01713 22.65341,0 41.01714,18.36372 41.01714,41.01713 z"
                 inkscape:connector-curvature="0" /></g><g
               transform="translate(23.504,-81.131)"
               id="g144"><g
                 id="g146"><g
                   transform="translate(-325.595,-448.624)"
                   id="g148"><text
   id="text152"
   style="font-variant:normal;font-weight:bold;font-size:9.96263981px;font-family:LMRoman10;-inkscape-font-specification:LMRoman10-Bold;writing-mode:lr-tb;fill:#000000;fill-opacity:0.8;fill-rule:nonzero;stroke:none"
   transform="matrix(1,0,0,-1,352.305,448.624)"><tspan
     id="tspan150"
     y="0"
     x="0 8.2789536 14.645081">CSS</tspan></text>

<g
   transform="translate(325.595,448.624)"
   id="g154" /></g></g><g
                 transform="translate(-23.504,81.131)"
                 id="g156" /></g></g><g
             id="g158"><g
               id="g160"><path
                 id="path162"
                 style="fill:#f799d1;fill-opacity:0.5;fill-rule:nonzero;stroke:#ffffff;stroke-width:1.59404004;stroke-linecap:butt;stroke-linejoin:miter;stroke-miterlimit:10;stroke-dasharray:none;stroke-opacity:1"
                 d="m 141.89569,-1.71896 c 0,23.93631 -19.40367,43.33998 -43.33999,43.33998 -23.93633,0 -43.33999,-19.40367 -43.33999,-43.33998 0,-23.93631 19.40366,-43.33998 43.33999,-43.33998 23.93632,0 43.33999,19.40367 43.33999,43.33998 z"
                 inkscape:connector-curvature="0" /></g><g
               transform="translate(60.567,-10.207)"
               id="g164"><g
                 id="g166"><g
                   transform="translate(-362.658,-519.548)"
                   id="g168"><text
   id="text172"
   style="font-variant:normal;font-weight:bold;font-size:9.96263981px;font-family:LMRoman10;-inkscape-font-specification:LMRoman10-Bold;writing-mode:lr-tb;fill:#000000;fill-opacity:0.8;fill-rule:nonzero;stroke:none"
   transform="matrix(1,0,0,-1,380.99,531.503)"><tspan
     id="tspan170"
     y="0"
     x="0 8.8169365 19.696138 30.405977">UML&amp;</tspan></text>

<text
   id="text176"
   style="font-variant:normal;font-weight:bold;font-size:9.96263981px;font-family:LMRoman10;-inkscape-font-specification:LMRoman10-Bold;writing-mode:lr-tb;fill:#000000;fill-opacity:0.8;fill-rule:nonzero;stroke:none"
   transform="matrix(1,0,0,-1,362.658,519.548)"><tspan
     id="tspan174"
     y="0"
     x="0 8.7870483 14.03736 18.560398 21.73848 27.466999 37.648815 45.160648 50.729763 55.183064 59.636364 64.886673 69.608963">DesignPattern</tspan></text>

<g
   transform="translate(362.658,519.548)"
   id="g178" /></g></g><g
                 transform="translate(-60.567,10.207)"
                 id="g180" /></g></g></g></g></g></g></svg>